<?xml version="1.0" encoding="utf-8"?>

<svg fill="#FFF" version="1.1" id="图层_1" xmlns="http://www.w3.org/2000/svg" xmlns:xlink="http://www.w3.org/1999/xlink" x="0px" y="0px"
	 viewBox="0 0 128 128" style="enable-background:new 0 0 128 128;" xml:space="preserve">
<g id="Regular-M" transform="matrix(1 0 0 1 1379.95 1126)">
	<path d="M-1373.4-1018c0,3.5,2.4,6.6,7.4,6.6h38.8c5.8,0,8.4-2.6,8.4-8.4v-58.3c0-4.3-3.2-6.6-6.7-6.6c-2.3,0-4.6,1.1-6.2,3.4
		l-40.2,58.4C-1372.9-1021.5-1373.4-1019.7-1373.4-1018z M-1313.1-1019.8c0,5.8,2.6,8.4,8.4,8.4h38.8c5,0,7.3-3,7.3-6.6
		c0-1.7-0.4-3.5-1.5-5.1l-40.2-58.4c-1.6-2.2-3.8-3.4-6.2-3.4c-3.5,0-6.6,2.3-6.6,6.6V-1019.8z M-1365.8-1096.7l13,9.8
		c2.7,2.1,5.9,0.8,5.9-2.5v-7h61.7v7c0,3.3,3.3,4.6,5.9,2.5l13.1-9.8c1.8-1.3,1.8-3.8,0-5.1l-13.1-9.8c-2.6-2-5.9-0.9-5.9,2.6v6.9
		h-61.7v-6.9c0-3.4-3.2-4.6-5.9-2.6l-13,9.8C-1367.6-1100.5-1367.6-1098-1365.8-1096.7z"/>
</g>
</svg>
