<?xml version="1.0" encoding="utf-8"?>
<svg version="1.1" id="图层_1" xmlns="http://www.w3.org/2000/svg" xmlns:xlink="http://www.w3.org/1999/xlink" x="0px" y="0px"
	 viewBox="0 0 128 128" style="enable-background:new 0 0 128 128;" xml:space="preserve">
<style type="text/css">
	.st0{fill:#FFFFFF;}
</style>
<g id="Regular-M" transform="matrix(1 0 0 1 1400.66 1126)">
	<path class="st0" d="M-1359.2-1028.4h43.9c7.6,0,11.3-3.6,11.3-11.4v-43.8c0-7.7-3.8-11.3-11.3-11.3h-43.9
		c-7.5,0-11.3,3.6-11.3,11.3v43.8C-1370.5-1032-1366.7-1028.4-1359.2-1028.4z M-1389.9-1086.5c1.5,0,2.7-1.3,2.7-2.7v-6.5
		c0-9.4,6.1-16.1,15.7-16.1h0.9v5.4c0,3.2,2.4,3.9,5,2.1l11.2-8.2c1.9-1.4,1.8-2.9,0-4.3l-11.2-8.2c-2.4-1.8-5-1.2-5,2.1v5.8h-0.9
		c-12.7,0-21.1,8.6-21.1,21.2v6.6C-1392.7-1087.8-1391.4-1086.5-1389.9-1086.5z"/>
</g>
</svg>
