<?xml version="1.0" encoding="utf-8"?>

<svg fill="#FFF" version="1.1" id="图层_1" xmlns="http://www.w3.org/2000/svg" xmlns:xlink="http://www.w3.org/1999/xlink" x="0px" y="0px"
	 viewBox="0 0 128 128" style="enable-background:new 0 0 128 128;" xml:space="preserve">
<g id="Regular-M" transform="matrix(1 0 0 1 1386.77 1126)">
	<path d="M-1272.2-1012v-38.8c0-5.8-2.6-8.4-8.4-8.4h-58.3c-4.3,0-6.6,3.2-6.6,6.7c0,2.3,1.1,4.6,3.3,6.2l58.4,40.2
		c1.6,1.1,3.4,1.5,5.1,1.5C-1275.2-1004.6-1272.2-1006.9-1272.2-1012z M-1280.6-1064.9c5.8,0,8.4-2.6,8.4-8.4v-38.8
		c0-5-3-7.3-6.6-7.3c-1.7,0-3.5,0.4-5.1,1.5l-58.4,40.2c-2.2,1.6-3.3,3.8-3.3,6.2c0,3.5,2.3,6.6,6.6,6.6H-1280.6z M-1357.5-1012.1
		l9.8-13c2-2.7,0.8-5.9-2.6-5.9h-7v-61.8h7c3.3,0,4.6-3.3,2.6-5.9l-9.8-13.1c-1.3-1.8-3.8-1.8-5.1,0l-9.8,13.1c-2,2.6-1,5.9,2.5,5.9
		h6.9v61.8h-6.9c-3.4,0-4.6,3.2-2.5,5.9l9.8,13C-1361.3-1010.3-1358.7-1010.4-1357.5-1012.1z"/>
</g>
</svg>
